<svg width="32" height="32" viewBox="0 0 32 32" fill="none" xmlns="http://www.w3.org/2000/svg">
<g clip-path="url(#clip0_86_356)">
<path d="M8.66667 2.66675H23.3333C23.5403 2.66675 23.7445 2.71494 23.9296 2.80751C24.1148 2.90008 24.2758 3.03449 24.4 3.20008L28 8.00008V28.0001C28 28.3537 27.8595 28.6928 27.6095 28.9429C27.3594 29.1929 27.0203 29.3334 26.6667 29.3334H5.33333C4.97971 29.3334 4.64057 29.1929 4.39052 28.9429C4.14048 28.6928 4 28.3537 4 28.0001V8.00008L7.6 3.20008C7.7242 3.03449 7.88524 2.90008 8.07038 2.80751C8.25552 2.71494 8.45967 2.66675 8.66667 2.66675ZM24.6667 8.00008L22.6667 5.33341H9.33333L7.33333 8.00008H24.6667ZM12 13.3334H9.33333V16.0001C9.33333 17.7682 10.0357 19.4639 11.286 20.7141C12.5362 21.9644 14.2319 22.6667 16 22.6667C17.7681 22.6667 19.4638 21.9644 20.714 20.7141C21.9643 19.4639 22.6667 17.7682 22.6667 16.0001V13.3334H20V16.0001C20 17.0609 19.5786 18.0784 18.8284 18.8285C18.0783 19.5787 17.0609 20.0001 16 20.0001C14.9391 20.0001 13.9217 19.5787 13.1716 18.8285C12.4214 18.0784 12 17.0609 12 16.0001V13.3334Z" fill="#FA4A0C"/>
</g>
<defs>
<clipPath id="clip0_86_356">
<rect width="32" height="32" fill="white"/>
</clipPath>
</defs>
</svg>
