<svg width="32" height="32" viewBox="0 0 32 32" fill="none" xmlns="http://www.w3.org/2000/svg">
<g clip-path="url(#clip0_86_352)">
<path d="M12 17.3334V21.3334H20V17.3334H29.3333V26.6667C29.3333 27.0203 29.1928 27.3595 28.9428 27.6095C28.6927 27.8596 28.3536 28 28 28H3.99999C3.64637 28 3.30723 27.8596 3.05718 27.6095C2.80713 27.3595 2.66666 27.0203 2.66666 26.6667V17.3334H12ZM14.6667 14.6667H17.3333V18.6667H14.6667V14.6667ZM9.33332 6.66671V2.66671C9.33332 2.31309 9.4738 1.97395 9.72385 1.7239C9.9739 1.47385 10.313 1.33337 10.6667 1.33337H21.3333C21.6869 1.33337 22.0261 1.47385 22.2761 1.7239C22.5262 1.97395 22.6667 2.31309 22.6667 2.66671V6.66671H28C28.3536 6.66671 28.6927 6.80718 28.9428 7.05723C29.1928 7.30728 29.3333 7.64642 29.3333 8.00004V14.6667H20V12H12V14.6667H2.66666V8.00004C2.66666 7.64642 2.80713 7.30728 3.05718 7.05723C3.30723 6.80718 3.64637 6.66671 3.99999 6.66671H9.33332ZM12 4.00004V6.66671H20V4.00004H12Z" fill="#FA4A0C"/>
</g>
<defs>
<clipPath id="clip0_86_352">
<rect width="32" height="32" fill="white"/>
</clipPath>
</defs>
</svg>
