<svg width="32" height="32" viewBox="0 0 32 32" fill="none" xmlns="http://www.w3.org/2000/svg">
<g clip-path="url(#clip0_86_360)">
<path d="M2.66665 12H6.66665V28H2.66665C2.31302 28 1.97389 27.8595 1.72384 27.6095C1.47379 27.3595 1.33331 27.0203 1.33331 26.6667V13.3334C1.33331 12.9797 1.47379 12.6406 1.72384 12.3906C1.97389 12.1405 2.31302 12 2.66665 12ZM9.72398 10.276L18.2573 1.74269C18.3707 1.62895 18.5214 1.55998 18.6816 1.54847C18.8418 1.53696 19.0008 1.58367 19.1293 1.68003L20.2666 2.53336C20.5825 2.77049 20.8211 3.09583 20.9523 3.46837C21.0835 3.8409 21.1015 4.24395 21.004 4.62669L19.4666 10.6667H28C28.7072 10.6667 29.3855 10.9476 29.8856 11.4477C30.3857 11.9478 30.6666 12.6261 30.6666 13.3334V16.1387C30.667 16.4872 30.5991 16.8323 30.4666 17.1547L26.34 27.1747C26.2393 27.419 26.0683 27.6279 25.8487 27.7748C25.6292 27.9217 25.3709 28.0001 25.1066 28H10.6666C10.313 28 9.97389 27.8595 9.72384 27.6095C9.47379 27.3595 9.33331 27.0203 9.33331 26.6667V11.2187C9.33339 10.8651 9.47391 10.526 9.72398 10.276Z" fill="#FA4A0C"/>
</g>
<defs>
<clipPath id="clip0_86_360">
<rect width="32" height="32" fill="white"/>
</clipPath>
</defs>
</svg>
