<svg width="190" height="25" viewBox="0 0 190 25" fill="none" xmlns="http://www.w3.org/2000/svg">
<path d="M44.5731 18.7446V6.85843H50.3803C51.8746 6.85843 52.9953 7.14143 53.7424 7.70744C54.5009 8.27344 54.8801 9.02057 54.8801 9.94883C54.8801 10.5714 54.7273 11.1148 54.4216 11.5789C54.116 12.0317 53.6971 12.3827 53.1651 12.6317C52.633 12.8807 52.0217 13.0053 51.3312 13.0053L51.6538 12.3091C52.401 12.3091 53.0632 12.4336 53.6405 12.6826C54.2179 12.9204 54.665 13.277 54.982 13.7524C55.3103 14.2278 55.4744 14.8108 55.4744 15.5014C55.4744 16.5202 55.0725 17.3182 54.2688 17.8956C53.4651 18.4616 52.2821 18.7446 50.7199 18.7446H44.5731ZM47.3069 16.673H50.5162C51.2293 16.673 51.767 16.5598 52.1293 16.3334C52.5029 16.0957 52.6896 15.7221 52.6896 15.2127C52.6896 14.7146 52.5029 14.3467 52.1293 14.109C51.767 13.8599 51.2293 13.7354 50.5162 13.7354H47.1031V11.7318H50.0407C50.7086 11.7318 51.218 11.6185 51.5689 11.3921C51.9312 11.1544 52.1123 10.7978 52.1123 10.3224C52.1123 9.85827 51.9312 9.513 51.5689 9.2866C51.218 9.04888 50.7086 8.93001 50.0407 8.93001H47.3069V16.673Z" fill="#292B2D"/>
<path d="M58.406 18.7446V6.85843H63.551C64.6151 6.85843 65.532 7.03389 66.3018 7.38481C67.0716 7.72442 67.6659 8.21684 68.0847 8.86209C68.5036 9.50734 68.713 10.2771 68.713 11.1714C68.713 12.0544 68.5036 12.8185 68.0847 13.4637C67.6659 14.0977 67.0716 14.5844 66.3018 14.924C65.532 15.2636 64.6151 15.4334 63.551 15.4334H59.9342L61.1568 14.2278V18.7446H58.406ZM65.9622 18.7446L62.9907 14.4316H65.9282L68.9337 18.7446H65.9622ZM61.1568 14.5335L59.9342 13.243H63.3982C64.2472 13.243 64.8811 13.0619 65.3 12.6996C65.7188 12.3261 65.9282 11.8167 65.9282 11.1714C65.9282 10.5148 65.7188 10.0054 65.3 9.64318C64.8811 9.28094 64.2472 9.09982 63.3982 9.09982H59.9342L61.1568 7.79234V14.5335Z" fill="#292B2D"/>
<path d="M74.2715 11.6469H79.9938V13.7864H74.2715V11.6469ZM74.4753 16.5372H80.9447V18.7446H71.7415V6.85843H80.724V9.06585H74.4753V16.5372Z" fill="#292B2D"/>
<path d="M87.8879 18.9483C86.937 18.9483 86.0258 18.8238 85.1541 18.5748C84.2825 18.3144 83.5806 17.9805 83.0486 17.573L83.9825 15.5014C84.4919 15.8636 85.0919 16.1636 85.7824 16.4013C86.4842 16.6277 87.1917 16.7409 87.9049 16.7409C88.4483 16.7409 88.8841 16.69 89.2124 16.5881C89.552 16.4749 89.801 16.3221 89.9595 16.1296C90.118 15.9372 90.1972 15.7164 90.1972 15.4674C90.1972 15.1504 90.0727 14.9014 89.8237 14.7203C89.5746 14.5278 89.2463 14.375 88.8388 14.2618C88.4313 14.1373 87.9785 14.0241 87.4804 13.9222C86.9936 13.809 86.5012 13.6732 86.0031 13.5147C85.5164 13.3562 85.0692 13.1524 84.6617 12.9034C84.2542 12.6543 83.9202 12.3261 83.6598 11.9185C83.4108 11.511 83.2863 10.9903 83.2863 10.3564C83.2863 9.67714 83.4674 9.0602 83.8297 8.50551C84.2032 7.9395 84.7579 7.49235 85.4937 7.16407C86.2408 6.82447 87.1748 6.65466 88.2954 6.65466C89.0426 6.65466 89.7784 6.74522 90.5029 6.92635C91.2274 7.09615 91.867 7.35651 92.4216 7.70744L91.5726 9.79601C91.0179 9.47904 90.4633 9.24698 89.9086 9.09982C89.3539 8.94133 88.8105 8.86209 88.2785 8.86209C87.7464 8.86209 87.3106 8.92435 86.971 9.04887C86.6314 9.1734 86.388 9.33754 86.2408 9.5413C86.0937 9.73374 86.0201 9.96015 86.0201 10.2205C86.0201 10.5262 86.1446 10.7752 86.3937 10.9676C86.6427 11.1488 86.971 11.2959 87.3785 11.4091C87.786 11.5223 88.2332 11.6355 88.72 11.7487C89.218 11.8619 89.7105 11.9921 90.1972 12.1393C90.6953 12.2864 91.1481 12.4845 91.5557 12.7336C91.9632 12.9826 92.2915 13.3109 92.5405 13.7184C92.8009 14.126 92.9311 14.641 92.9311 15.2636C92.9311 15.9315 92.7443 16.5428 92.3707 17.0975C91.9971 17.6522 91.4368 18.0993 90.6897 18.4389C89.9539 18.7785 89.0199 18.9483 87.8879 18.9483Z" fill="#292B2D"/>
<path d="M97.956 18.7446V9.09982H94.1524V6.85843H104.51V9.09982H100.707V18.7446H97.956Z" fill="#292B2D"/>
<path d="M112.447 18.9483C111.507 18.9483 110.636 18.7955 109.832 18.4899C109.04 18.1842 108.349 17.7541 107.76 17.1994C107.183 16.6447 106.73 15.9938 106.402 15.2467C106.085 14.4995 105.926 13.6845 105.926 12.8015C105.926 11.9185 106.085 11.1035 106.402 10.3564C106.73 9.60922 107.189 8.95831 107.777 8.40363C108.366 7.84894 109.057 7.41877 109.849 7.11313C110.641 6.80748 111.502 6.65466 112.43 6.65466C113.369 6.65466 114.23 6.80748 115.011 7.11313C115.803 7.41877 116.488 7.84894 117.066 8.40363C117.654 8.95831 118.113 9.60922 118.441 10.3564C118.769 11.0922 118.933 11.9072 118.933 12.8015C118.933 13.6845 118.769 14.5052 118.441 15.2636C118.113 16.0108 117.654 16.6617 117.066 17.2164C116.488 17.7597 115.803 18.1842 115.011 18.4899C114.23 18.7955 113.375 18.9483 112.447 18.9483ZM112.43 16.6051C112.962 16.6051 113.449 16.5145 113.89 16.3334C114.343 16.1523 114.739 15.8919 115.079 15.5523C115.418 15.2127 115.679 14.8108 115.86 14.3467C116.052 13.8826 116.149 13.3675 116.149 12.8015C116.149 12.2355 116.052 11.7204 115.86 11.2563C115.679 10.7922 115.418 10.3903 115.079 10.0507C114.751 9.7111 114.36 9.45074 113.907 9.26962C113.454 9.0885 112.962 8.99793 112.43 8.99793C111.898 8.99793 111.405 9.0885 110.953 9.26962C110.511 9.45074 110.121 9.7111 109.781 10.0507C109.441 10.3903 109.175 10.7922 108.983 11.2563C108.802 11.7204 108.711 12.2355 108.711 12.8015C108.711 13.3562 108.802 13.8713 108.983 14.3467C109.175 14.8108 109.436 15.2127 109.764 15.5523C110.104 15.8919 110.5 16.1523 110.953 16.3334C111.405 16.5145 111.898 16.6051 112.43 16.6051Z" fill="#292B2D"/>
<path d="M121.85 18.7446V6.85843H124.125L131.138 15.4165H130.034V6.85843H132.751V18.7446H130.493L123.463 10.1866H124.567V18.7446H121.85Z" fill="#292B2D"/>
<path d="M136.412 18.7446V6.85843H142.219C143.714 6.85843 144.834 7.14143 145.582 7.70744C146.34 8.27344 146.719 9.02057 146.719 9.94883C146.719 10.5714 146.566 11.1148 146.261 11.5789C145.955 12.0317 145.536 12.3827 145.004 12.6317C144.472 12.8807 143.861 13.0053 143.17 13.0053L143.493 12.3091C144.24 12.3091 144.902 12.4336 145.48 12.6826C146.057 12.9204 146.504 13.277 146.821 13.7524C147.149 14.2278 147.314 14.8108 147.314 15.5014C147.314 16.5202 146.912 17.3182 146.108 17.8956C145.304 18.4616 144.121 18.7446 142.559 18.7446H136.412ZM139.146 16.673H142.355C143.068 16.673 143.606 16.5598 143.968 16.3334C144.342 16.0957 144.529 15.7221 144.529 15.2127C144.529 14.7146 144.342 14.3467 143.968 14.109C143.606 13.8599 143.068 13.7354 142.355 13.7354H138.942V11.7318H141.88C142.548 11.7318 143.057 11.6185 143.408 11.3921C143.77 11.1544 143.951 10.7978 143.951 10.3224C143.951 9.85827 143.77 9.513 143.408 9.2866C143.057 9.04888 142.548 8.93001 141.88 8.93001H139.146V16.673Z" fill="#292B2D"/>
<path d="M148.683 18.7446L153.981 6.85843H156.698L162.012 18.7446H159.126L154.779 8.2508H155.866L151.502 18.7446H148.683ZM151.332 16.1976L152.062 14.109H158.175L158.922 16.1976H151.332Z" fill="#292B2D"/>
<path d="M164.095 18.7446V6.85843H166.37L173.383 15.4165H172.279V6.85843H174.996V18.7446H172.738L165.708 10.1866H166.811V18.7446H164.095Z" fill="#292B2D"/>
<path d="M181.119 16.0277L180.966 12.8524L186.655 6.85843H189.711L184.583 12.377L183.055 14.0071L181.119 16.0277ZM178.657 18.7446V6.85843H181.391V18.7446H178.657ZM186.791 18.7446L182.563 13.5656L184.363 11.6129L190 18.7446H186.791Z" fill="#292B2D"/>
<path fill-rule="evenodd" clip-rule="evenodd" d="M19.0545 14.1559V20.7164H23.2755C24.7307 20.7164 25.7919 20.4391 26.4593 19.8843C27.1266 19.3215 27.4602 18.5738 27.4602 17.6412C27.4602 16.9578 27.2954 16.3548 26.9658 15.8322C26.6361 15.3096 26.1658 14.8996 25.5548 14.6021C24.9518 14.3046 24.2322 14.1559 23.3961 14.1559H19.0545ZM19.0545 10.6224H22.8895C23.6051 10.6224 24.2402 10.4978 24.795 10.2485C25.3578 9.99125 25.8 9.62945 26.1216 9.16314C26.4512 8.69683 26.616 8.13805 26.616 7.48682C26.616 6.5944 26.2985 5.87483 25.6633 5.32811C25.0362 4.7814 24.1438 4.50805 22.986 4.50805H19.0545V10.6224ZM9.16547 0.287109H13.7964H19.0545H23.6855C25.5025 0.287109 27.018 0.556446 28.232 1.09512C29.4461 1.63379 30.3586 2.3815 30.9696 3.33824C31.5807 4.28695 31.8862 5.38037 31.8862 6.61852C31.8862 7.5833 31.6932 8.43151 31.3073 9.16314C30.9214 9.88673 30.3908 10.4817 29.7154 10.948C29.0481 11.4063 28.2843 11.7319 27.424 11.9248V12.166C28.3647 12.2062 29.2451 12.4715 30.0651 12.962C30.8932 13.4524 31.5646 14.1398 32.0791 15.0242C32.5937 15.9006 32.851 16.9457 32.851 18.1598C32.851 19.4703 32.5253 20.6401 31.8741 21.6692C31.2309 22.6902 30.2782 23.4982 29.0159 24.0932C27.7537 24.6881 26.198 24.9856 24.3488 24.9856H19.0545H13.7964H8.50218C6.653 24.9856 5.09728 24.6881 3.83502 24.0932C2.57276 23.4982 1.62004 22.6902 0.976847 21.6692C0.325616 20.6401 0 19.4703 0 18.1598C0 16.9457 0.257277 15.9006 0.77183 15.0242C1.28638 14.1398 1.95771 13.4524 2.78582 12.962C3.60589 12.4715 4.48625 12.2062 5.42692 12.166V11.9248C4.56665 11.7319 3.80286 11.4063 3.13555 10.948C2.4602 10.4817 1.92957 9.88673 1.54366 9.16314C1.15774 8.43151 0.964787 7.5833 0.964787 6.61852C0.964787 5.38037 1.2703 4.28695 1.88133 3.33824C2.49236 2.3815 3.40489 1.63379 4.61891 1.09512C5.83293 0.556446 7.34845 0.287109 9.16547 0.287109ZM13.7964 4.50805H9.86493C8.70719 4.50805 7.81476 4.7814 7.18765 5.32811C6.5525 5.87483 6.23493 6.5944 6.23493 7.48682C6.23493 8.13805 6.39974 8.69683 6.72938 9.16314C7.05098 9.62945 7.49317 9.99125 8.05596 10.2485C8.61071 10.4978 9.24586 10.6224 9.96141 10.6224H13.7964V4.50805ZM13.7964 20.7164V14.1559H9.4549C8.61875 14.1559 7.89918 14.3046 7.29619 14.6021C6.68516 14.8996 6.21483 15.3096 5.88519 15.8322C5.55556 16.3548 5.39074 16.9578 5.39074 17.6412C5.39074 18.5738 5.72439 19.3215 6.39171 19.8843C7.05902 20.4391 8.12028 20.7164 9.5755 20.7164H13.7964Z" fill="#FA4A0C"/>
</svg>
