<svg width="32" height="32" viewBox="0 0 32 32" fill="none" xmlns="http://www.w3.org/2000/svg">
<g clip-path="url(#clip0_45_4)">
<path d="M16 14.6667C17.7681 14.6667 19.4638 15.3691 20.714 16.6193C21.9643 17.8695 22.6667 19.5652 22.6667 21.3333V29.3333H9.33333V21.3333C9.33333 19.5652 10.0357 17.8695 11.286 16.6193C12.5362 15.3691 14.2319 14.6667 16 14.6667ZM7.05066 18.6747C6.83847 19.3904 6.71313 20.129 6.67733 20.8747L6.66666 21.3333V29.3333H2.66666V23.3333C2.6664 22.1834 3.0907 21.0739 3.85818 20.2176C4.62565 19.3613 5.68226 18.8185 6.82533 18.6933L7.052 18.6747H7.05066ZM24.9493 18.6747C26.1359 18.747 27.2501 19.2693 28.0648 20.135C28.8795 21.0007 29.3332 22.1446 29.3333 23.3333V29.3333H25.3333V21.3333C25.3333 20.4093 25.2 19.5173 24.9493 18.6747ZM7.33333 10.6667C8.21739 10.6667 9.06523 11.0179 9.69035 11.643C10.3155 12.2681 10.6667 13.1159 10.6667 14C10.6667 14.8841 10.3155 15.7319 9.69035 16.357C9.06523 16.9821 8.21739 17.3333 7.33333 17.3333C6.44928 17.3333 5.60143 16.9821 4.97631 16.357C4.35119 15.7319 4 14.8841 4 14C4 13.1159 4.35119 12.2681 4.97631 11.643C5.60143 11.0179 6.44928 10.6667 7.33333 10.6667ZM24.6667 10.6667C25.5507 10.6667 26.3986 11.0179 27.0237 11.643C27.6488 12.2681 28 13.1159 28 14C28 14.8841 27.6488 15.7319 27.0237 16.357C26.3986 16.9821 25.5507 17.3333 24.6667 17.3333C23.7826 17.3333 22.9348 16.9821 22.3096 16.357C21.6845 15.7319 21.3333 14.8841 21.3333 14C21.3333 13.1159 21.6845 12.2681 22.3096 11.643C22.9348 11.0179 23.7826 10.6667 24.6667 10.6667ZM16 2.66667C17.4145 2.66667 18.771 3.22857 19.7712 4.22877C20.7714 5.22896 21.3333 6.58552 21.3333 8C21.3333 9.41449 20.7714 10.771 19.7712 11.7712C18.771 12.7714 17.4145 13.3333 16 13.3333C14.5855 13.3333 13.229 12.7714 12.2288 11.7712C11.2286 10.771 10.6667 9.41449 10.6667 8C10.6667 6.58552 11.2286 5.22896 12.2288 4.22877C13.229 3.22857 14.5855 2.66667 16 2.66667Z" fill="#FA4A0C"/>
</g>
<defs>
<clipPath id="clip0_45_4">
<rect width="32" height="32" fill="white"/>
</clipPath>
</defs>
</svg>
